<svg xmlns="http://www.w3.org/2000/svg" viewBox="0 0 1000 380" width="1000" height="380" font-family="-apple-system, Segoe UI, Helvetica, Arial, sans-serif">
<defs>
<marker id="a-good" viewBox="0 0 10 10" refX="9" refY="5" markerWidth="7" markerHeight="7" orient="auto-start-reverse"><path d="M0,0 L10,5 L0,10 z" fill="#3fb950"/></marker>
<marker id="a-bad" viewBox="0 0 10 10" refX="9" refY="5" markerWidth="7" markerHeight="7" orient="auto-start-reverse"><path d="M0,0 L10,5 L0,10 z" fill="#f85149"/></marker>
</defs>
<rect x="1" y="1" width="998" height="378" rx="14" fill="#0d1117" stroke="#30363d"/>
<text x="28.0" y="42.0" font-size="16" fill="#e6edf3" text-anchor="start" font-weight="600">Turning the short way round</text>
<text x="28.0" y="62.0" font-size="13" fill="#8b949e" text-anchor="start" font-weight="normal">Heading goes from 350° to 10° between two updates</text>
<circle cx="130" cy="200" r="78" fill="none" stroke="#30363d" stroke-width="1.5"/>
<text x="130.0" y="112.0" font-size="11.5" fill="#8b949e" text-anchor="middle" font-weight="700">N</text>
<text x="222.0" y="204.0" font-size="11.5" fill="#8b949e" text-anchor="middle" font-weight="700">E</text>
<text x="130.0" y="296.0" font-size="11.5" fill="#8b949e" text-anchor="middle" font-weight="700">S</text>
<text x="38.0" y="204.0" font-size="11.5" fill="#8b949e" text-anchor="middle" font-weight="700">W</text>
<path d="M118.5,135.0 A66,66 0 1 0 141.5,135.0" fill="none" stroke="#0d1117" stroke-width="5"/>
<path d="M118.5,135.0 A66,66 0 1 0 141.5,135.0" fill="none" stroke="#f85149" stroke-width="2.2" marker-end="url(#a-bad)"/>
<line x1="130" y1="200" x2="80.2" y2="204.4" stroke="#f85149" stroke-width="2.5" stroke-opacity="0.4" stroke-linecap="round"/>
<line x1="130" y1="200" x2="130.0" y2="250.0" stroke="#f85149" stroke-width="2.5" stroke-opacity="0.4" stroke-linecap="round"/>
<line x1="130" y1="200" x2="179.8" y2="204.4" stroke="#f85149" stroke-width="2.5" stroke-opacity="0.4" stroke-linecap="round"/>
<line x1="130" y1="200" x2="121.0" y2="148.8" stroke="#e6edf3" stroke-width="3" stroke-linecap="round"/>
<text x="105.3" y="170.0" font-size="11.5" fill="#e6edf3" text-anchor="middle" font-weight="700">350°</text>
<line x1="130" y1="200" x2="139.0" y2="148.8" stroke="#e6edf3" stroke-width="3" stroke-linecap="round"/>
<text x="154.7" y="170.0" font-size="11.5" fill="#e6edf3" text-anchor="middle" font-weight="700">10°</text>
<circle cx="130" cy="200" r="5" fill="#e6edf3"/>
<text x="130.0" y="322.0" font-size="13.5" fill="#f85149" text-anchor="middle" font-weight="700">Blend the numbers</text>
<text x="130.0" y="342.0" font-size="12.5" fill="#8b949e" text-anchor="middle" font-weight="normal">spins 340° the wrong way</text>
<circle cx="360" cy="200" r="78" fill="none" stroke="#30363d" stroke-width="1.5"/>
<text x="360.0" y="112.0" font-size="11.5" fill="#8b949e" text-anchor="middle" font-weight="700">N</text>
<text x="452.0" y="204.0" font-size="11.5" fill="#8b949e" text-anchor="middle" font-weight="700">E</text>
<text x="360.0" y="296.0" font-size="11.5" fill="#8b949e" text-anchor="middle" font-weight="700">S</text>
<text x="268.0" y="204.0" font-size="11.5" fill="#8b949e" text-anchor="middle" font-weight="700">W</text>
<path d="M348.5,135.0 A66,66 0 0 1 371.5,135.0" fill="none" stroke="#3fb950" stroke-width="2.2" marker-end="url(#a-good)"/>
<line x1="360" y1="200" x2="355.6" y2="150.2" stroke="#3fb950" stroke-width="2.5" stroke-opacity="0.4" stroke-linecap="round"/>
<line x1="360" y1="200" x2="360.0" y2="150.0" stroke="#3fb950" stroke-width="2.5" stroke-opacity="0.4" stroke-linecap="round"/>
<line x1="360" y1="200" x2="364.4" y2="150.2" stroke="#3fb950" stroke-width="2.5" stroke-opacity="0.4" stroke-linecap="round"/>
<line x1="360" y1="200" x2="351.0" y2="148.8" stroke="#e6edf3" stroke-width="3" stroke-linecap="round"/>
<text x="335.3" y="170.0" font-size="11.5" fill="#e6edf3" text-anchor="middle" font-weight="700">350°</text>
<line x1="360" y1="200" x2="369.0" y2="148.8" stroke="#e6edf3" stroke-width="3" stroke-linecap="round"/>
<text x="384.7" y="170.0" font-size="11.5" fill="#e6edf3" text-anchor="middle" font-weight="700">10°</text>
<circle cx="360" cy="200" r="5" fill="#e6edf3"/>
<text x="360.0" y="322.0" font-size="13.5" fill="#3fb950" text-anchor="middle" font-weight="700">Shortest arc</text>
<text x="360.0" y="342.0" font-size="12.5" fill="#8b949e" text-anchor="middle" font-weight="normal">turns 20°</text>
<line x1="500" y1="30" x2="500" y2="350" stroke="#30363d"/>
<text x="526.0" y="42.0" font-size="16" fill="#e6edf3" text-anchor="start" font-weight="600">Cue ripples: harder cue, faster pulse</text>
<text x="526.0" y="62.0" font-size="13" fill="#8b949e" text-anchor="start" font-weight="normal">radius × (1 + 1.5·phase), opacity 1 − phase</text>
<circle cx="600" cy="190" r="22.0" fill="none" stroke="#e3b341" stroke-width="3" stroke-opacity="1.00"/>
<circle cx="600" cy="190" r="32.9" fill="none" stroke="#e3b341" stroke-width="3" stroke-opacity="0.67"/>
<circle cx="600" cy="190" r="43.8" fill="none" stroke="#e3b341" stroke-width="3" stroke-opacity="0.34"/>
<circle cx="600" cy="190" r="7" fill="#e6edf3"/>
<text x="600.0" y="272.0" font-size="13.5" fill="#e3b341" text-anchor="middle" font-weight="700">sound</text>
<text x="600.0" y="292.0" font-size="12.5" fill="#8b949e" text-anchor="middle" font-weight="normal">every 1000 ms</text>
<circle cx="750" cy="190" r="22.0" fill="none" stroke="#f0883e" stroke-width="3" stroke-opacity="1.00"/>
<circle cx="750" cy="190" r="32.9" fill="none" stroke="#f0883e" stroke-width="3" stroke-opacity="0.67"/>
<circle cx="750" cy="190" r="43.8" fill="none" stroke="#f0883e" stroke-width="3" stroke-opacity="0.34"/>
<circle cx="750" cy="190" r="7" fill="#e6edf3"/>
<text x="750.0" y="272.0" font-size="13.5" fill="#f0883e" text-anchor="middle" font-weight="700">vibration</text>
<text x="750.0" y="292.0" font-size="12.5" fill="#8b949e" text-anchor="middle" font-weight="normal">every 600 ms</text>
<circle cx="900" cy="190" r="22.0" fill="none" stroke="#f85149" stroke-width="3" stroke-opacity="1.00"/>
<circle cx="900" cy="190" r="32.9" fill="none" stroke="#f85149" stroke-width="3" stroke-opacity="0.67"/>
<circle cx="900" cy="190" r="43.8" fill="none" stroke="#f85149" stroke-width="3" stroke-opacity="0.34"/>
<circle cx="900" cy="190" r="7" fill="#e6edf3"/>
<text x="900.0" y="272.0" font-size="13.5" fill="#f85149" text-anchor="middle" font-weight="700">pulse</text>
<text x="900.0" y="292.0" font-size="12.5" fill="#8b949e" text-anchor="middle" font-weight="normal">every 350 ms</text>
<text x="526.0" y="334.0" font-size="12.5" fill="#e6edf3" text-anchor="start" font-weight="normal">Only the ripple layer's paint changes each frame, not the data,</text>
<text x="526.0" y="352.0" font-size="12.5" fill="#8b949e" text-anchor="start" font-weight="normal">and the loop only runs while some cow is being cued.</text>
</svg>